<?xml version="1.0" encoding="utf-8"?>
<!-- Generator: Adobe Illustrator 16.0.0, SVG Export Plug-In . SVG Version: 6.00 Build 0)  -->
<!DOCTYPE svg PUBLIC "-//W3C//DTD SVG 1.1//EN" "http://www.w3.org/Graphics/SVG/1.1/DTD/svg11.dtd">
<svg version="1.1" id="Layer_1" xmlns="http://www.w3.org/2000/svg" xmlns:xlink="http://www.w3.org/1999/xlink" x="0px" y="0px"
	 width="50px" height="50px" viewBox="0 0 50 50" enable-background="new 0 0 50 50" xml:space="preserve">
<path fill="#006DFF" d="M25.127,36.714c-6.506,0-11.781-5.274-11.781-11.781c0-6.507,5.184-12.658,11.781-16.92V0.767
	c-13.347,0-24.166,10.819-24.166,24.167C0.961,38.279,11.78,49.1,25.127,49.1V36.714z"/>
<path fill="#0556CC" d="M25.127,13.151c6.507,0,11.781,5.275,11.781,11.781c0,6.507-5.184,12.658-11.781,16.921V49.1
	c13.347,0,24.166-10.82,24.166-24.167c0-13.346-10.819-24.166-24.166-24.166V13.151z"/>
</svg>
